<svg xmlns="http://www.w3.org/2000/svg" xmlns:xlink="http://www.w3.org/1999/xlink" width="2500" height="1948" viewBox="0 0 2500 1948">
  <defs>
    <style>
      .cls-1 {
        fill: url(#linear-gradient);
      }

      .cls-2 {
        fill: #ff6361;
      }

      .cls-3 {
        fill: #484c7f;
      }

      .cls-4 {
        stroke: #ffd443;
        stroke-miterlimit: 10;
        fill: url(#linear-gradient-2);
      }

      .cls-5 {
        fill: #babeea;
      }

      .cls-6 {
        fill: #e2ecf2;
      }

      .cls-7 {
        fill: #ffd443;
      }
    </style>
    <linearGradient id="linear-gradient" x1="1221.44" y1="29.2" x2="1223.25" y2="999.33" gradientUnits="userSpaceOnUse">
      <stop offset="0" stop-color="#ffd443"/>
      <stop offset="1" stop-color="#ff6361"/>
    </linearGradient>
    <linearGradient id="linear-gradient-2" x1="1095.83" y1="231.8" x2="1090.24" y2="751.4" gradientUnits="userSpaceOnUse">
      <stop offset="0" stop-color="#ffd443" stop-opacity="0"/>
      <stop offset="0.59" stop-color="#e2ecf2"/>
    </linearGradient>
  </defs>
  <title>background</title>
  <g id="Layer_7" data-name="Layer 7">
    <rect class="cls-1" x="-109" y="-18.98" width="2662" height="698.69"/>
  </g>
  <g id="Layer_6" data-name="Layer 6">
    <circle class="cls-2" cx="1229.13" cy="513.69" r="365.77"/>
  </g>
  <g id="Layer_8" data-name="Layer 8">
    <path class="cls-3" d="M234.66,491.85c51.15,3.44,100.62,19.19,150,33.16,29.66,8.72,59,18.77,87.38,31.07,24.06,10.43,50.68,34.22,75,40.92,294,88,483-70,603-73,173,1,301.79,132.38,399.89,138.19C1703.11,600.81,2212,491,2367,509s310,323,310,323L-109,869C-5.88,747.69-140,605.41-37,484-32.7,478.93,222,491,234.66,491.85Z"/>
  </g>
  <g id="Layer_12" data-name="Layer 12">
    <path class="cls-4" d="M-51.5,650.5s-34.58-205.89,100-242c123-33,154,31,202,69,29-87,97-163,196.05-175.75C548.7,288.61,546,398.52,546,398.52s71,17.76,102.1,111.86c61.26-17.75,96.48-99.4,202.27-108.29,129,5.3,176.24,194.72,176.24,194.72s72.48,18.33,84,140c73.69-15.09,137.4-28.18,165-15.43,1.58.74,15.1-11.88,16.9-13.4,8.19-6.93,14.09-15.82,22.32-22.65a69.84,69.84,0,0,1,28.1-14.18c22.46-5.43,46.35-.66,69.19-3,22.2-2.28,43.93-5.71,65.14-13a220,220,0,0,0,32.16-14c2.82-1.52,5.61-3.08,8.37-4.71a292.45,292.45,0,0,0,44.67-32.77c39.07-7.1,61-6.47,92.18,14.52,42-19.28,207.88-242,308.21-239.7S2063.2,521,2067.64,530.8s69.25-103,109.2-64.81S2268.5,919.5,2268.5,919.5l-2360-12Z"/>
  </g>
  <g id="Layer_4" data-name="Layer 4">
    <rect class="cls-5" x="685.94" y="274.64" width="214.84" height="416.37" rx="28.69" transform="translate(138.82 -176.05) rotate(13.86)"/>
    <rect class="cls-3" x="693.69" y="283.99" width="198.77" height="404.93" rx="28.69" transform="translate(139.68 -175.87) rotate(13.86)"/>
    <rect class="cls-6" x="715.03" y="422.42" width="175.43" height="46.7" rx="12.34" transform="translate(130.21 -179.38) rotate(13.86)"/>
    <rect class="cls-7" x="701.27" y="479.44" width="175.43" height="44.62" rx="12.34" transform="translate(143.23 -174.45) rotate(13.86)"/>
  </g>
  <g id="Layer_3" data-name="Layer 3">
    <path class="cls-5" d="M-80,738S345.5,518.5,515.5,524.5C776,522,1059,708,1233.5,694.5,1434,666,1591,569,1698.5,547.5,1946,515,2247,537,2526,611c5,212,84,532,84,532L-91,1168Z"/>
  </g>
  <g id="Layer_9" data-name="Layer 9">
    <ellipse class="cls-6" cx="1539.93" cy="384.61" rx="91.13" ry="68.03" transform="translate(-35.67 192.79) rotate(-7.08)"/>
    <polygon class="cls-6" points="1557.94 438.02 1595.35 416.87 1602.85 468.24 1557.94 438.02"/>
    <ellipse class="cls-6" cx="1488.23" cy="513.44" rx="59.95" ry="44.75" transform="translate(-85.78 482.81) rotate(-17.92)"/>
    <polygon class="cls-6" points="1505.58 554.32 1527.94 535.34 1539.56 568.81 1505.58 554.32"/>
    <path class="cls-2" d="M1558.12,416.84s-47.23-8.4-54.58-29.39c-4.19-22,15.75-35.68,33.59-18.89,2.1-18.89,24.14-27.28,35.68-3.14C1583.3,386.4,1558.12,416.84,1558.12,416.84Z"/>
    <circle class="cls-3" cx="1467.05" cy="521.45" r="7.19"/>
    <circle class="cls-3" cx="1490.75" cy="514.66" r="7.19"/>
    <circle class="cls-3" cx="1513.68" cy="507.7" r="7.19"/>
  </g>
  <g id="Layer_10" data-name="Layer 10">
    <path class="cls-7" d="M-44.18,765.47a105.19,105.19,0,0,0-72.12,78.1c-23,106.48-62.61,1154.86-51.7,1153.43,8.92-1.17,2745.73,1.83,2764,0,13.68-1.37-62.72-1159.59-67-1232-1.74-29.38-217,72-353.92,61-74.25-6-134.51-77.66-205.17-87.59-151.35-21.26-277.69,95.39-402,163.65-43.75,24-99.05,42.31-148.74,26.37-32.66-10.48-62.83-29.92-93.62-44.7-67.86-32.57-132.52-58-209.14-47.69-57.07,7.65-111.52,26.87-165,47.33-63.2,24.17-143.32-4.78-199.76-34.45-40.7-21.39-72.4-55.74-112.24-78.34-36.62-20.76-77.69-32.19-119.51-35.74-76.05-6.45-170.34,10.57-245.61,35.13A105.8,105.8,0,0,1,225,773.9L103.93,754.81A328.23,328.23,0,0,0-43.51,765.26Z"/>
    <circle class="cls-7" cx="412.37" cy="753.39" r="55.93"/>
    <circle class="cls-7" cx="468.75" cy="737.85" r="27.97"/>
    <circle class="cls-7" cx="695.13" cy="815.98" r="27.97"/>
    <circle class="cls-7" cx="765.27" cy="859.48" r="27.97"/>
    <circle class="cls-7" cx="733.75" cy="820.86" r="31.07"/>
    <circle class="cls-7" cx="673.38" cy="792.45" r="14.2"/>
    <circle class="cls-7" cx="1071.11" cy="837.73" r="31.07"/>
    <circle class="cls-7" cx="1334.78" cy="889.22" r="31.07"/>
    <circle class="cls-7" cx="1696.11" cy="802.22" r="31.07"/>
    <circle class="cls-7" cx="2071.64" cy="771.15" r="31.07"/>
    <circle class="cls-7" cx="2027.69" cy="770.7" r="20.86"/>
    <circle class="cls-7" cx="1661.04" cy="817.75" r="15.54"/>
    <circle class="cls-7" cx="1724.51" cy="782.69" r="11.54"/>
    <circle class="cls-7" cx="1365.41" cy="910.08" r="15.54"/>
    <circle class="cls-7" cx="1395.59" cy="917.19" r="19.09"/>
    <circle class="cls-7" cx="1032.49" cy="843.5" r="19.98"/>
    <circle class="cls-7" cx="1008.41" cy="859.71" r="9.77"/>
  </g>
  <g id="Layer_11" data-name="Layer 11">
    <rect class="cls-3" x="1370.54" y="926.99" width="524.89" height="28.52" rx="14.26" transform="translate(-164.81 375.09) rotate(-12.48)"/>
    <path class="cls-2" d="M1539.49,742.87l344.3-76.2c8.51-1.88,16.63,5.9,16.16,15.51L1890,888.47c-.31,6.3-4.33,11.46-9.92,12.7l-340.52,75.36c-8.4,1.85-16.45-5.73-16.17-15.23l6.15-205.45C1529.75,749.43,1533.81,744.12,1539.49,742.87Z"/>
    <ellipse class="cls-6" cx="1716.97" cy="819.97" rx="32.4" ry="36.4" transform="translate(-5.46 11.54) rotate(-0.38)"/>
  </g>
</svg>
