<svg id="Layer_1" data-name="Layer 1" xmlns="http://www.w3.org/2000/svg" width="1079.6" height="995.61" viewBox="0 0 1079.6 995.61">
  <defs>
    <style>
      .cls-1 {
        fill: #484b7f;
      }

      .cls-2 {
        fill: #ff6361;
      }
    </style>
  </defs>
  <title>homeicon</title>
  <path class="cls-1" d="M678.49,248.44H394.57c-142.35,0-257.74,115.4-257.74,257.75V849.84c0,142.34,115.39,198,257.74,198h0a6.29,6.29,0,0,0,6.28-6.29V823a75.8,75.8,0,0,1,75.8-75.8H589.08a75.8,75.8,0,0,1,75.8,75.8v218.61a6.29,6.29,0,0,0,6.28,6.29h7.33c142.35,0,257.75-63,257.75-205.36V506.19C936.24,363.84,820.84,248.44,678.49,248.44Z" transform="translate(-0.4 -52.25)"/>
  <path class="cls-2" d="M40.15,490.47H1040.24c38.56,0,54.47-49.44,23.14-71.92L563.33,59.69a39.69,39.69,0,0,0-46.27,0L17,418.55C-14.31,441,1.6,490.47,40.15,490.47Z" transform="translate(-0.4 -52.25)"/>
</svg>
